<?xml version="1.0" encoding="UTF-8" standalone="no"?>
<!DOCTYPE svg PUBLIC "-//W3C//DTD SVG 1.1//EN"
 "http://www.w3.org/Graphics/SVG/1.1/DTD/svg11.dtd">
<!-- Generated by graphviz version 2.40.1 (20161225.0304)
 -->
<!-- Title: G Pages: 1 -->
<svg width="692pt" height="390pt"
 viewBox="0.00 0.00 692.00 390.40" xmlns="http://www.w3.org/2000/svg" xmlns:xlink="http://www.w3.org/1999/xlink">
<g id="graph0" class="graph" transform="scale(1 1) rotate(0) translate(4 386.4)">
<title>G</title>
<polygon fill="#ffffff" stroke="transparent" points="-4,4 -4,-386.4 688,-386.4 688,4 -4,4"/>
<g id="clust1" class="cluster">
<title>cluster_user</title>
<polygon fill="none" stroke="#000000" points="237,-8 237,-172.8 458,-172.8 458,-8 237,-8"/>
</g>
<g id="clust2" class="cluster">
<title>cluster_handler</title>
<polygon fill="none" stroke="#000000" points="8,-209.6 8,-374.4 168,-374.4 168,-209.6 8,-209.6"/>
</g>
<!-- DispatchServlet -->
<g id="node1" class="node">
<title>DispatchServlet</title>
<polygon fill="#dfc1c1" stroke="#dddddd" stroke-width=".5" points="415,-164.8 271,-164.8 271,-135.8 415,-135.8 415,-164.8"/>
<text text-anchor="middle" x="343" y="-145.8" font-family="Futura" font-size="15.00" fill="#000000">DispatchServlet</text>
</g>
<!-- HandlerMapping -->
<g id="node2" class="node">
<title>HandlerMapping</title>
<polygon fill="#dfc1c1" stroke="#dddddd" stroke-width=".5" points="160,-366.4 16,-366.4 16,-337.4 160,-337.4 160,-366.4"/>
<text text-anchor="middle" x="88" y="-347.4" font-family="Futura" font-size="15.00" fill="#000000">HandlerMapping</text>
</g>
<!-- DispatchServlet&#45;&gt;HandlerMapping -->
<g id="edge3" class="edge">
<title>DispatchServlet&#45;&gt;HandlerMapping</title>
<path fill="none" stroke="#cccccc" stroke-width=".75" stroke-dasharray="5,2" d="M270.7273,-161.1104C253.1709,-165.9081 235.118,-172.8267 220,-182.8 216.1295,-185.3533 138.3569,-286.3226 104.0377,-330.9996"/>
<polygon fill="#cccccc" stroke="#cccccc" stroke-width=".75" points="99.3035,-337.1644 101.1948,-329.1604 101.5875,-334.1902 103.8715,-331.216 103.8715,-331.216 103.8715,-331.216 101.5875,-334.1902 106.5483,-333.2716 99.3035,-337.1644 99.3035,-337.1644"/>
<text text-anchor="middle" x="192.3496" y="-268.8" font-family="Times,serif" font-size="14.00" fill="#000000">2、映射处理器</text>
</g>
<!-- HandlerAdapter -->
<g id="node4" class="node">
<title>HandlerAdapter</title>
<polygon fill="#dfc1c1" stroke="#dddddd" stroke-width=".5" points="360,-246.6 216,-246.6 216,-217.6 360,-217.6 360,-246.6"/>
<text text-anchor="middle" x="288" y="-227.6" font-family="Futura" font-size="15.00" fill="#000000">HandlerAdapter</text>
</g>
<!-- DispatchServlet&#45;&gt;HandlerAdapter -->
<g id="edge6" class="edge">
<title>DispatchServlet&#45;&gt;HandlerAdapter</title>
<path fill="none" stroke="#cccccc" stroke-width=".75" stroke-dasharray="5,2" d="M270.8656,-163.1488C250.9639,-168.2372 233.1485,-174.806 227.0876,-182.8 218.1065,-194.6456 227.8887,-205.3605 242.0532,-213.752"/>
<polygon fill="#cccccc" stroke="#cccccc" stroke-width=".75" points="248.818,-217.4398 240.6175,-216.8132 245.5255,-215.6448 242.2329,-213.8499 242.2329,-213.8499 242.2329,-213.8499 245.5255,-215.6448 243.8484,-210.8866 248.818,-217.4398 248.818,-217.4398"/>
<text text-anchor="middle" x="270.9562" y="-187" font-family="Times,serif" font-size="14.00" fill="#000000">3、处理器适配</text>
</g>
<!-- ViewResolver -->
<g id="node5" class="node">
<title>ViewResolver</title>
<polygon fill="#dfc1c1" stroke="#dddddd" stroke-width=".5" points="522,-246.6 378,-246.6 378,-217.6 522,-217.6 522,-246.6"/>
<text text-anchor="middle" x="450" y="-227.6" font-family="Futura" font-size="15.00" fill="#000000">ViewResolver</text>
</g>
<!-- DispatchServlet&#45;&gt;ViewResolver -->
<g id="edge8" class="edge">
<title>DispatchServlet&#45;&gt;ViewResolver</title>
<path fill="none" stroke="#cccccc" stroke-width=".75" stroke-dasharray="5,2" d="M344.8376,-165.0229C346.9188,-175.8803 351.3138,-190.319 360.5322,-199.6 366.3278,-205.435 373.2512,-210.2295 380.6447,-214.1676"/>
<polygon fill="#cccccc" stroke="#cccccc" stroke-width=".75" points="387.5481,-217.5488 379.328,-217.2808 384.1803,-215.8993 380.8126,-214.2498 380.8126,-214.2498 380.8126,-214.2498 384.1803,-215.8993 382.2971,-211.2188 387.5481,-217.5488 387.5481,-217.5488"/>
<text text-anchor="middle" x="400.2339" y="-187" font-family="Times,serif" font-size="14.00" fill="#000000">4、视图解析</text>
</g>
<!-- View -->
<g id="node6" class="node">
<title>View</title>
<polygon fill="#dfc1c1" stroke="#dddddd" stroke-width=".5" points="684,-246.6 540,-246.6 540,-217.6 684,-217.6 684,-246.6"/>
<text text-anchor="middle" x="612" y="-227.6" font-family="Futura" font-size="15.00" fill="#000000">View</text>
</g>
<!-- DispatchServlet&#45;&gt;View -->
<g id="edge10" class="edge">
<title>DispatchServlet&#45;&gt;View</title>
<path fill="none" stroke="#cccccc" stroke-width=".75" stroke-dasharray="5,2" d="M396.5434,-164.8371C416.2297,-170.3041 438.6732,-176.6801 459,-182.8 493.1192,-193.0725 531.2634,-205.3616 560.9305,-215.1004"/>
<polygon fill="#cccccc" stroke="#cccccc" stroke-width=".75" points="568.2827,-217.5187 560.1037,-218.3813 564.7205,-216.347 561.1582,-215.1753 561.1582,-215.1753 561.1582,-215.1753 564.7205,-216.347 562.2128,-211.9692 568.2827,-217.5187 568.2827,-217.5187"/>
<text text-anchor="middle" x="545.5379" y="-187" font-family="Times,serif" font-size="14.00" fill="#000000">5、视图渲染</text>
</g>
<!-- 用户 -->
<g id="node7" class="node">
<title>用户</title>
<polygon fill="#dfc1c1" stroke="#dddddd" stroke-width=".5" points="415,-45 271,-45 271,-16 415,-16 415,-45"/>
<text text-anchor="middle" x="343" y="-26" font-family="Futura" font-size="15.00" fill="#000000">用户</text>
</g>
<!-- DispatchServlet&#45;&gt;用户 -->
<g id="edge2" class="edge">
<title>DispatchServlet&#45;&gt;用户</title>
<path fill="none" stroke="#cccccc" stroke-width=".75" stroke-dasharray="5,2" d="M308.5865,-135.6318C293.4406,-127.2292 277.1792,-115.0735 268.6556,-98.8 257.9325,-78.3273 277.9796,-60.8244 299.9438,-48.6634"/>
<polygon fill="#cccccc" stroke="#cccccc" stroke-width=".75" points="306.7899,-45.0634 301.7225,-51.5413 303.4708,-46.8088 300.1517,-48.5541 300.1517,-48.5541 300.1517,-48.5541 303.4708,-46.8088 298.5809,-45.5669 306.7899,-45.0634 306.7899,-45.0634"/>
<text text-anchor="middle" x="304.1722" y="-86.2" font-family="Times,serif" font-size="14.00" fill="#000000">7、返回响应</text>
</g>
<!-- HandlerExecutionChain -->
<g id="node3" class="node">
<title>HandlerExecutionChain</title>
<polygon fill="#dfc1c1" stroke="#dddddd" stroke-width=".5" points="160,-246.6 16,-246.6 16,-217.6 160,-217.6 160,-246.6"/>
<text text-anchor="middle" x="88" y="-227.6" font-family="Futura" font-size="15.00" fill="#000000">HandlerExecutionChain</text>
</g>
<!-- HandlerMapping&#45;&gt;HandlerExecutionChain -->
<g id="edge4" class="edge">
<title>HandlerMapping&#45;&gt;HandlerExecutionChain</title>
<path fill="none" stroke="#cccccc" stroke-width=".75" stroke-dasharray="5,2" d="M88,-337.2102C88,-316.5525 88,-278.7438 88,-254.5489"/>
<polygon fill="#cccccc" stroke="#cccccc" stroke-width=".75" points="88,-246.91 91.3751,-254.4099 88,-250.66 88.0001,-254.41 88.0001,-254.41 88.0001,-254.41 88,-250.66 84.6251,-254.41 88,-246.91 88,-246.91"/>
</g>
<!-- HandlerExecutionChain&#45;&gt;DispatchServlet -->
<g id="edge5" class="edge">
<title>HandlerExecutionChain&#45;&gt;DispatchServlet</title>
<path fill="none" stroke="#cccccc" stroke-width=".75" stroke-dasharray="5,2" d="M108.9412,-217.4562C125.7833,-206.3458 150.4426,-191.5397 174,-182.8 202.2858,-172.3061 234.551,-165.0342 263.2555,-160.0752"/>
<polygon fill="#cccccc" stroke="#cccccc" stroke-width=".75" points="270.8601,-158.8005 264.0213,-163.369 267.1617,-159.4204 263.4633,-160.0404 263.4633,-160.0404 263.4633,-160.0404 267.1617,-159.4204 262.9053,-156.7118 270.8601,-158.8005 270.8601,-158.8005"/>
</g>
<!-- HandlerAdapter&#45;&gt;DispatchServlet -->
<g id="edge7" class="edge">
<title>HandlerAdapter&#45;&gt;DispatchServlet</title>
<path fill="none" stroke="#cccccc" stroke-width=".75" stroke-dasharray="5,2" d="M299.7976,-217.4676C304.0901,-211.9636 308.8931,-205.5879 313,-199.6 319.0814,-190.7333 325.3359,-180.6373 330.5497,-171.9006"/>
<polygon fill="#cccccc" stroke="#cccccc" stroke-width=".75" points="334.4848,-165.2349 333.5783,-173.4092 332.5784,-168.4641 330.672,-171.6934 330.672,-171.6934 330.672,-171.6934 332.5784,-168.4641 327.7656,-169.9776 334.4848,-165.2349 334.4848,-165.2349"/>
</g>
<!-- ViewResolver&#45;&gt;DispatchServlet -->
<g id="edge9" class="edge">
<title>ViewResolver&#45;&gt;DispatchServlet</title>
<path fill="none" stroke="#cccccc" stroke-width=".75" stroke-dasharray="5,2" d="M451.0591,-217.4774C451.0397,-206.6725 449.2194,-192.2556 441,-182.8 436.1682,-177.2415 424.3404,-171.9027 410.506,-167.2153"/>
<polygon fill="#cccccc" stroke="#cccccc" stroke-width=".75" points="403.1149,-164.8258 411.2895,-163.9217 406.6831,-165.9794 410.2512,-167.1331 410.2512,-167.1331 410.2512,-167.1331 406.6831,-165.9794 409.213,-170.3444 403.1149,-164.8258 403.1149,-164.8258"/>
</g>
<!-- View&#45;&gt;DispatchServlet -->
<g id="edge11" class="edge">
<title>View&#45;&gt;DispatchServlet</title>
<path fill="none" stroke="#cccccc" stroke-width=".75" stroke-dasharray="5,2" d="M608.2929,-217.5559C604.5995,-206.1919 597.7446,-190.9949 586,-182.8 560.2249,-164.8152 483.3179,-156.7649 422.8519,-153.1722"/>
<polygon fill="#cccccc" stroke="#cccccc" stroke-width=".75" points="415.189,-152.7352 422.869,-149.7927 418.9329,-152.9487 422.6768,-153.1623 422.6768,-153.1623 422.6768,-153.1623 418.9329,-152.9487 422.4847,-156.5318 415.189,-152.7352 415.189,-152.7352"/>
</g>
<!-- 用户&#45;&gt;DispatchServlet -->
<g id="edge1" class="edge">
<title>用户&#45;&gt;DispatchServlet</title>
<path fill="none" stroke="#cccccc" stroke-width=".75" stroke-dasharray="5,2" d="M343,-45.31C343,-66.0339 343,-103.8493 343,-127.9915"/>
<polygon fill="#cccccc" stroke="#cccccc" stroke-width=".75" points="343,-135.6102 339.6251,-128.1101 343,-131.8602 343.0001,-128.1102 343.0001,-128.1102 343.0001,-128.1102 343,-131.8602 346.3751,-128.1102 343,-135.6102 343,-135.6102"/>
<text text-anchor="middle" x="383.3515" y="-86.2" font-family="Times,serif" font-size="14.00" fill="#000000">1、发送请求</text>
</g>
</g>
</svg>
