<?xml version="1.0" encoding="UTF-8" standalone="no"?>
<!DOCTYPE svg PUBLIC "-//W3C//DTD SVG 1.1//EN"
 "http://www.w3.org/Graphics/SVG/1.1/DTD/svg11.dtd">
<!-- Generated by graphviz version 2.40.1 (20161225.0304)
 -->
<!-- Title: G Pages: 1 -->
<svg width="317pt" height="295pt"
 viewBox="0.00 0.00 317.25 294.60" xmlns="http://www.w3.org/2000/svg" xmlns:xlink="http://www.w3.org/1999/xlink">
<g id="graph0" class="graph" transform="scale(1 1) rotate(0) translate(4 290.6)">
<title>G</title>
<polygon fill="#ffffff" stroke="transparent" points="-4,4 -4,-290.6 313.2476,-290.6 313.2476,4 -4,4"/>
<!-- Consumer -->
<g id="node1" class="node">
<title>Consumer</title>
<g id="a_node1"><a xlink:href="http://en.wikipedia.org/wiki/John de Fries" xlink:title="Consumer">
<polygon fill="#eecc80" stroke="#eecc80" points="191.1722,-197.8 118.0754,-197.8 118.0754,-161.8 191.1722,-161.8 191.1722,-197.8"/>
<text text-anchor="middle" x="154.6238" y="-175.6" font-family="Times,serif" font-size="14.00" fill="#000000">Consumer</text>
</a>
</g>
</g>
<!-- Thread 1 -->
<g id="node3" class="node">
<title>Thread 1</title>
<ellipse fill="#eecc80" stroke="#eecc80" cx="45.6238" cy="-91" rx="45.748" ry="18"/>
<text text-anchor="middle" x="45.6238" y="-86.8" font-family="Times,serif" font-size="14.00" fill="#000000">Thread 1</text>
</g>
<!-- Consumer&#45;&gt;Thread 1 -->
<g id="edge2" class="edge">
<title>Consumer&#45;&gt;Thread 1</title>
<path fill="none" stroke="#000000" d="M132.303,-161.6157C115.3433,-147.799 91.9063,-128.7054 73.6787,-113.8557"/>
<polygon fill="#000000" stroke="#000000" points="75.6759,-110.9683 65.7123,-107.3657 71.2546,-116.3953 75.6759,-110.9683"/>
<text text-anchor="middle" x="128.8896" y="-131.2" font-family="Times,serif" font-size="14.00" fill="#000000">Create</text>
</g>
<!-- Thread 2 -->
<g id="node5" class="node">
<title>Thread 2</title>
<ellipse fill="#eecc80" stroke="#eecc80" cx="154.6238" cy="-91" rx="45.748" ry="18"/>
<text text-anchor="middle" x="154.6238" y="-86.8" font-family="Times,serif" font-size="14.00" fill="#000000">Thread 2</text>
</g>
<!-- Consumer&#45;&gt;Thread 2 -->
<g id="edge4" class="edge">
<title>Consumer&#45;&gt;Thread 2</title>
<path fill="none" stroke="#000000" d="M154.6238,-161.4006C154.6238,-149.2949 154.6238,-133.2076 154.6238,-119.4674"/>
<polygon fill="#000000" stroke="#000000" points="158.1239,-119.072 154.6238,-109.072 151.1239,-119.0721 158.1239,-119.072"/>
<text text-anchor="middle" x="172.8896" y="-131.2" font-family="Times,serif" font-size="14.00" fill="#000000">Create</text>
</g>
<!-- Thread 3 -->
<g id="node6" class="node">
<title>Thread 3</title>
<ellipse fill="#eecc80" stroke="#eecc80" cx="263.6238" cy="-91" rx="45.748" ry="18"/>
<text text-anchor="middle" x="263.6238" y="-86.8" font-family="Times,serif" font-size="14.00" fill="#000000">Thread 3</text>
</g>
<!-- Consumer&#45;&gt;Thread 3 -->
<g id="edge6" class="edge">
<title>Consumer&#45;&gt;Thread 3</title>
<path fill="none" stroke="#000000" d="M176.9446,-161.6157C193.9043,-147.799 217.3413,-128.7054 235.569,-113.8557"/>
<polygon fill="#000000" stroke="#000000" points="237.9931,-116.3953 243.5353,-107.3657 233.5718,-110.9683 237.9931,-116.3953"/>
<text text-anchor="middle" x="237.8896" y="-131.2" font-family="Times,serif" font-size="14.00" fill="#000000">Create</text>
</g>
<!-- MQ(Apache Kafka) -->
<g id="node2" class="node">
<title>MQ(Apache Kafka)</title>
<ellipse fill="#eecc80" stroke="#eecc80" cx="154.6238" cy="-268.6" rx="88.5245" ry="18"/>
<text text-anchor="middle" x="154.6238" y="-264.4" font-family="Times,serif" font-size="14.00" fill="#000000">MQ(Apache Kafka)</text>
</g>
<!-- MQ(Apache Kafka)&#45;&gt;Consumer -->
<g id="edge1" class="edge">
<title>MQ(Apache Kafka)&#45;&gt;Consumer</title>
<path fill="none" stroke="#000000" d="M154.6238,-250.2006C154.6238,-238.0949 154.6238,-222.0076 154.6238,-208.2674"/>
<polygon fill="#000000" stroke="#000000" points="158.1239,-207.872 154.6238,-197.872 151.1239,-207.8721 158.1239,-207.872"/>
<text text-anchor="middle" x="212.7532" y="-220" font-family="Times,serif" font-size="14.00" fill="#000000">Consume(book info)</text>
</g>
<!-- Database(PostgreSQL) -->
<g id="node4" class="node">
<title>Database(PostgreSQL)</title>
<ellipse fill="#eecc80" stroke="#eecc80" cx="154.6238" cy="-18" rx="100.1143" ry="18"/>
<text text-anchor="middle" x="154.6238" y="-13.8" font-family="Times,serif" font-size="14.00" fill="#000000">Database(PostgreSQL)</text>
</g>
<!-- Thread 1&#45;&gt;Database(PostgreSQL) -->
<g id="edge3" class="edge">
<title>Thread 1&#45;&gt;Database(PostgreSQL)</title>
<path fill="none" stroke="#000000" d="M69.0071,-75.3397C83.9223,-65.3505 103.5137,-52.2297 120.1911,-41.0604"/>
<polygon fill="#000000" stroke="#000000" points="122.2454,-43.8971 128.6065,-35.4244 118.3501,-38.081 122.2454,-43.8971"/>
</g>
<!-- Thread 2&#45;&gt;Database(PostgreSQL) -->
<g id="edge5" class="edge">
<title>Thread 2&#45;&gt;Database(PostgreSQL)</title>
<path fill="none" stroke="#000000" d="M154.6238,-72.9551C154.6238,-64.8828 154.6238,-55.1764 154.6238,-46.1817"/>
<polygon fill="#000000" stroke="#000000" points="158.1239,-46.0903 154.6238,-36.0904 151.1239,-46.0904 158.1239,-46.0903"/>
</g>
<!-- Thread 3&#45;&gt;Database(PostgreSQL) -->
<g id="edge7" class="edge">
<title>Thread 3&#45;&gt;Database(PostgreSQL)</title>
<path fill="none" stroke="#000000" d="M240.2406,-75.3397C225.3253,-65.3505 205.7339,-52.2297 189.0565,-41.0604"/>
<polygon fill="#000000" stroke="#000000" points="190.8975,-38.081 180.6411,-35.4244 187.0023,-43.8971 190.8975,-38.081"/>
</g>
</g>
</svg>
